<?xml version="1.0" encoding="UTF-8"?>
<svg width="110px" height="84px" viewBox="0 0 110 84" version="1.1" xmlns="http://www.w3.org/2000/svg" xmlns:xlink="http://www.w3.org/1999/xlink">
    <!-- Generator: Sketch 55.2 (78181) - https://sketchapp.com -->
    <title>WF_logo_navy_with_yellow</title>
    <desc>Created with Sketch.</desc>
    <g id="Web-App-1.0" stroke="none" stroke-width="1" fill="none" fill-rule="evenodd">
        <g id="Log-In" transform="translate(-1081.000000, -476.000000)" fill-rule="nonzero">
            <g id="WF_logo_navy_with_yellow" transform="translate(1081.000000, 476.000000)">
                <path d="M37.15,72.64 C37.83,72.32 38.44,71.78 38.98,71.01 C39.52,70.24 39.79,69.31 39.79,68.23 C39.79,66.37 39.21,64.91 38.04,63.84 C36.87,62.77 35.25,62.23 33.19,62.23 L24.61,62.23 L24.61,83.62 L33.55,83.62 C35.51,83.62 37.09,83.08 38.29,82 C39.49,80.92 40.09,79.4 40.09,77.46 C40.09,76.16 39.8,75.12 39.24,74.36 C38.66,73.59 37.97,73.02 37.15,72.64 Z M28.78,65.95 L32.86,65.95 C33.72,65.95 34.39,66.17 34.88,66.62 C35.37,67.07 35.61,67.66 35.61,68.41 C35.61,69.17 35.37,69.77 34.89,70.21 C34.41,70.65 33.73,70.87 32.85,70.87 L28.77,70.87 L28.77,65.95 L28.78,65.95 Z M35.2,79.15 C34.72,79.65 34.03,79.9 33.13,79.9 L28.78,79.9 L28.78,74.62 L33.13,74.62 C34.05,74.62 34.75,74.87 35.22,75.36 C35.69,75.85 35.92,76.48 35.92,77.25 C35.92,78.02 35.68,78.64 35.2,79.15 Z M36.04,12.92 L44.47,12.92 L44.47,9.2 L36.04,9.2 L36.04,3.95 L45.94,3.95 L45.94,0.23 L31.87,0.23 L31.87,21.62 L36.04,21.62 L36.04,12.92 Z M22.75,0.23 L19.42,13.7 L15.52,0.23 L12.4,0.23 L8.5,13.7 L5.2,0.23 L0.85,0.23 L6.55,21.62 L10.03,21.62 L13.96,8.66 L17.89,21.62 L21.37,21.62 L27.1,0.23 L22.75,0.23 Z M16.69,33.45 C15.87,32.63 14.98,32.05 14.02,31.72 C13.06,31.39 12.01,31.22 10.87,31.22 L3.16,31.22 L3.16,52.61 L10.87,52.61 C11.99,52.61 13.04,52.44 14.04,52.08 C15.03,51.73 15.85,51.22 16.51,50.56 C17.45,49.62 18.04,48.59 18.3,47.47 C18.55,46.35 18.68,44.92 18.68,43.17 L18.68,40.47 C18.68,38.77 18.56,37.38 18.3,36.29 C18.04,35.23 17.51,34.27 16.69,33.45 Z M14.34,45.7 C14.23,46.49 13.9,47.22 13.35,47.89 C12.8,48.56 11.85,48.9 10.49,48.9 L7.34,48.9 L7.34,34.95 L10.49,34.95 C11.21,34.95 11.82,35.06 12.32,35.28 C12.82,35.5 13.25,35.83 13.61,36.27 C13.99,36.75 14.23,37.37 14.34,38.12 C14.45,38.87 14.51,40.11 14.51,41.83 C14.5,43.62 14.45,44.91 14.34,45.7 Z M37.6,48.9 L27.7,48.9 L27.7,43.68 L36.13,43.68 L36.13,39.96 L27.7,39.96 L27.7,34.95 L37.6,34.95 L37.6,31.23 L23.53,31.23 L23.53,52.62 L37.6,52.62 L37.6,48.9 Z M50.32,49.05 C49.26,49.05 48.29,48.91 47.42,48.63 C46.55,48.35 45.79,47.89 45.15,47.25 L42.45,49.95 C43.47,50.99 44.6,51.72 45.84,52.14 C47.08,52.56 48.55,52.77 50.25,52.77 C52.57,52.77 54.47,52.2 55.95,51.05 C57.43,49.9 58.17,48.32 58.17,46.3 C58.17,45.32 58.04,44.46 57.78,43.71 C57.52,42.96 57.01,42.24 56.26,41.55 C55.51,40.86 54.24,40.38 52.44,40.12 L49.92,39.76 C49.08,39.64 48.48,39.41 48.12,39.08 C47.76,38.75 47.53,38.47 47.44,38.23 C47.35,37.99 47.31,37.71 47.31,37.39 C47.31,36.59 47.59,35.94 48.15,35.44 C48.71,34.94 49.53,34.69 50.61,34.69 C51.43,34.69 52.21,34.79 52.96,35 C53.71,35.21 54.38,35.6 54.98,36.16 L57.62,33.55 C56.7,32.65 55.69,32.01 54.6,31.63 C53.51,31.25 52.22,31.06 50.72,31.06 C48.42,31.06 46.6,31.66 45.27,32.85 C43.94,34.04 43.28,35.61 43.28,37.54 C43.28,39.32 43.77,40.7 44.75,41.67 C45.73,42.64 47.13,43.25 48.95,43.51 L51.53,43.87 C51.99,43.93 52.37,44.03 52.67,44.16 C52.97,44.29 53.28,44.51 53.6,44.81 C53.92,45.11 54.08,45.65 54.08,46.43 C54.1,48.17 52.84,49.05 50.32,49.05 Z M106.93,64.45 C106.11,63.63 105.22,63.05 104.26,62.72 C103.3,62.39 102.25,62.22 101.11,62.22 L93.4,62.22 L93.4,83.61 L101.11,83.61 C102.23,83.61 103.28,83.44 104.28,83.08 C105.28,82.72 106.1,82.22 106.75,81.56 C107.69,80.62 108.29,79.59 108.54,78.47 C108.79,77.35 108.92,75.92 108.92,74.17 L108.92,71.47 C108.92,69.77 108.8,68.38 108.54,67.29 C108.28,66.23 107.75,65.27 106.93,64.45 Z M104.57,76.7 C104.46,77.49 104.13,78.22 103.58,78.89 C103.03,79.56 102.08,79.9 100.72,79.9 L97.57,79.9 L97.57,65.95 L100.72,65.95 C101.44,65.95 102.05,66.06 102.55,66.28 C103.05,66.5 103.48,66.83 103.84,67.27 C104.22,67.75 104.46,68.37 104.57,69.12 C104.68,69.87 104.74,71.11 104.74,72.83 C104.74,74.62 104.68,75.91 104.57,76.7 Z M104.98,31.23 L104.98,44.31 L96.52,31.23 L92.8,31.23 L92.8,52.62 L96.97,52.62 L96.97,39.51 L105.43,52.62 L109.15,52.62 L109.15,31.23 L104.98,31.23 Z M79.88,52.77 C81.04,52.77 82.13,52.57 83.14,52.18 C84.16,51.79 85.08,51.17 85.89,50.33 C86.63,49.55 87.15,48.66 87.46,47.65 C87.77,46.65 87.92,45.36 87.92,43.8 L87.92,40.67 L79.91,40.67 L79.91,44.18 L83.81,44.18 L83.81,45 C83.81,45.54 83.73,46.06 83.57,46.56 C83.41,47.06 83.07,47.6 82.54,48.18 C82.01,48.76 81.12,49.05 79.88,49.05 C78.74,49.05 77.9,48.75 77.36,48.13 C76.82,47.52 76.49,46.85 76.37,46.14 C76.25,45.42 76.19,44.01 76.19,41.91 C76.19,39.87 76.25,38.47 76.38,37.72 C76.51,36.97 76.85,36.29 77.39,35.68 C77.93,35.07 78.76,34.76 79.88,34.76 C81.94,34.76 83.22,35.79 83.72,37.85 L87.92,37.85 C87.6,35.9 86.76,34.28 85.42,32.98 C84.07,31.69 82.22,31.04 79.88,31.04 C78.68,31.04 77.62,31.23 76.69,31.62 C75.76,32.01 74.86,32.64 73.99,33.51 C73.12,34.38 72.57,35.41 72.36,36.6 C72.14,37.79 72.03,39.56 72.03,41.9 C72.03,44.26 72.13,46.02 72.34,47.19 C72.55,48.36 73.09,49.38 73.96,50.25 C74.83,51.12 75.75,51.75 76.71,52.16 C77.69,52.57 78.75,52.77 79.88,52.77 Z M78.82,62.23 L74.65,62.23 L74.65,83.62 L88.51,83.62 L88.51,79.9 L78.82,79.9 L78.82,62.23 Z M56.5,76.12 C56.5,77.36 56.16,78.33 55.49,79.01 C54.82,79.7 53.92,80.05 52.78,80.05 C51.64,80.05 50.74,79.7 50.08,79 C49.42,78.3 49.09,77.34 49.09,76.12 L49.09,62.23 L44.92,62.23 L44.92,76.27 C44.92,78.51 45.67,80.32 47.17,81.7 C48.67,83.08 50.54,83.77 52.78,83.77 C55.04,83.77 56.91,83.08 58.4,81.7 C59.89,80.32 60.63,78.51 60.63,76.27 L60.63,62.23 L56.49,62.23 L56.49,76.12 L56.5,76.12 Z M67.18,31.23 L63.01,31.23 L63.01,52.62 L67.18,52.62 L67.18,31.23 Z M65.5,83.62 L69.67,83.62 L69.67,62.23 L65.5,62.23 L65.5,83.62 Z" id="Shape" fill="#011E41"></path>
                <path d="M9.98,67.72 L6.32,67.72 L6.32,72.52 L1.49,72.52 L1.49,76.18 L6.32,76.18 L6.32,80.98 L9.98,80.98 L9.98,76.18 L14.78,76.18 L14.78,72.52 L9.98,72.52 L9.98,67.72 Z M84.35,3.02 L60.19,14.73 L60.19,18.38 L84.35,6.69 L108.51,18.38 L108.51,14.73 L84.35,3.02 Z" id="Shape" fill="#FED925"></path>
            </g>
        </g>
    </g>
</svg>